<svg width="412" height="297" viewBox="0 0 412 297" fill="none" xmlns="http://www.w3.org/2000/svg">
<path d="M246.824 0.103248C246.443 0.0810489 246.108 0.112498 245.745 0.109415C245.722 0.109415 245.697 0.103248 245.674 0.103248C138.116 -2.34053 25.0633 38.6451 34.8337 117.948C34.8722 118.269 34.9936 118.554 35.082 118.853C34.9409 119.673 34.9409 120.532 35.2447 121.466C41.1423 139.564 32.0904 155.474 9.43479 166.568C8.39653 167.075 7.6009 167.658 6.9059 168.265C4.6159 169.252 2.80834 170.765 1.83403 172.596C-2.41589 180.594 0.81269 188.735 10.5596 194.299C12.1659 195.213 14.027 195.836 15.9634 196.171C22.2551 198.451 28.8336 199.966 35.665 201.025C34.2609 205.991 34.9512 211.013 38.5993 215.742C31.7875 224.447 36.3093 234.051 49.7578 239.292C50.5167 239.59 51.2738 239.812 52.0186 239.984C54.3011 241.766 54.5212 244.628 53.6804 247.381C53.4199 248.223 53.387 249.065 53.4848 249.886C53.4256 250.631 53.4613 251.389 53.6804 252.153C57.2259 264.346 73.1102 271.079 91.2855 271.295C92.2645 271.308 93.1673 271.242 94.0194 271.129C94.8602 271.154 95.7414 271.123 96.6508 271.026C125.84 267.922 159.074 269.657 170.037 290.678C172.23 294.877 178.087 296.302 183.335 295.747C185.104 296.618 187.433 297.113 190.368 296.978C243.26 294.554 295.687 289.516 348.205 284.894C350.063 284.731 351.672 284.337 353.061 283.779C359.428 282.476 364.571 277.805 360.459 272.769C325.368 229.87 396.505 183.069 410.006 141.857C410.302 140.966 410.307 140.141 410.187 139.355C424.457 71.6685 353.028 6.37519 246.824 0.103248ZM387.785 136.337C387.647 136.963 387.628 137.562 387.68 138.138C373.014 182.234 308.697 224.864 334.16 271.036C286.333 275.294 238.538 279.666 190.362 281.876C190.02 281.892 189.722 281.952 189.395 281.986C172.176 256.857 132.112 252.351 92.4714 256.287C92.0755 256.256 91.7077 256.199 91.2827 256.194C86.7694 256.137 84.4126 255.83 80.8906 254.421C81.1991 254.484 79.0812 253.375 79.1 253.394C78.7972 253.194 78.6081 253.075 78.4699 252.996C78.4699 252.936 78.3486 252.758 77.9037 252.285C77.2332 251.58 76.7385 250.588 76.3275 249.467C78.3711 240.211 74.3629 232.17 62.5339 226.252C61.5831 225.779 60.5185 225.513 59.4181 225.338C59.0768 225.15 58.7448 224.968 58.3865 224.731C58.4513 224.749 58.3912 224.656 58.1861 224.439C58.1861 224.248 58.1664 224.186 58.1335 224.204C58.2745 223.804 58.41 223.403 58.6253 223.014C58.63 222.999 60.3473 221.252 60.9153 220.725C62.5028 219.256 62.8282 217.475 62.3288 215.762C62.801 214.071 62.4652 212.305 60.9153 210.833C56.5582 206.694 57.415 203.171 60.9153 198.819C65.928 192.59 56.8987 186.904 48.9001 187.486C48.8164 187.48 48.7421 187.461 48.6612 187.452C40.5469 186.75 32.7035 185.194 25.6718 182.439C25.1677 182.244 24.673 182.125 24.1793 181.978C23.8275 181.643 23.5012 181.301 23.2068 180.948C23.157 180.851 23.1184 180.766 23.0498 180.628C22.9924 180.453 22.952 180.337 22.9134 180.224C22.8937 179.877 22.9087 179.535 22.9322 179.188C22.9708 179.094 23.0451 178.877 23.1429 178.543C52.4052 163.55 64.9743 142.943 57.8542 118.856C57.8683 118.554 57.9162 118.272 57.8777 117.951C49.0948 46.6677 150.234 13.0455 245.668 15.2118C245.969 15.2179 246.236 15.1834 246.527 15.1772C246.633 15.1834 246.718 15.205 246.823 15.2118C337.426 20.5637 400.694 78.5022 387.785 136.337Z" fill="black" fill-opacity="0.9"/>
</svg>
